<?xml version="1.0" encoding="UTF-8"?>
<svg id="Layer_2" data-name="Layer 2" xmlns="http://www.w3.org/2000/svg" xmlns:xlink="http://www.w3.org/1999/xlink" viewBox="0 0 1202.67 535.69">
  <defs>
    <style>
      .cls-1 {
        fill: url(#linear-gradient);
      }

      .cls-2 {
        fill: #ffd694;
      }

      .cls-3 {
        fill: #fff;
      }
    </style>
    <linearGradient id="linear-gradient" x1="463.44" y1="105.63" x2="739.2" y2="179.52" gradientUnits="userSpaceOnUse">
      <stop offset="0" stop-color="#ffd694"/>
      <stop offset="1" stop-color="#ff966f"/>
    </linearGradient>
  </defs>
  <g id="Layer_1-2" data-name="Layer 1">
    <g>
      <path class="cls-3" d="M30.51,413.14c1.34,2.32,3.06,4.22,5.17,5.7,2.11,1.48,4.54,2.57,7.28,3.27,2.75.7,5.6,1.05,8.55,1.05,2.11,0,4.33-.24,6.65-.74,2.32-.49,4.43-1.27,6.33-2.32,1.9-1.06,3.48-2.46,4.75-4.22,1.27-1.76,1.9-3.98,1.9-6.65,0-4.5-2.99-7.88-8.97-10.14-5.98-2.25-14.32-4.5-25.02-6.76-4.36-.98-8.62-2.14-12.78-3.48-4.15-1.34-7.85-3.09-11.09-5.28-3.24-2.18-5.84-4.93-7.81-8.24-1.97-3.31-2.96-7.35-2.96-12.14,0-7.04,1.37-12.81,4.12-17.31,2.75-4.5,6.37-8.06,10.87-10.66,4.5-2.6,9.57-4.43,15.2-5.49,5.63-1.06,11.4-1.58,17.31-1.58s11.65.56,17.21,1.69c5.56,1.13,10.52,3.03,14.89,5.7,4.36,2.68,7.99,6.23,10.87,10.66,2.88,4.43,4.61,10.03,5.17,16.79h-28.51c-.42-5.77-2.61-9.68-6.54-11.72-3.94-2.04-8.59-3.06-13.94-3.06-1.69,0-3.52.1-5.49.32-1.97.21-3.77.67-5.38,1.37-1.62.71-2.99,1.73-4.12,3.06-1.13,1.34-1.69,3.13-1.69,5.38,0,2.68.98,4.86,2.96,6.54,1.97,1.69,4.54,3.06,7.71,4.12,3.17,1.05,6.79,2,10.87,2.85,4.08.85,8.24,1.76,12.46,2.75,4.36.99,8.62,2.18,12.77,3.59,4.15,1.41,7.85,3.27,11.09,5.6,3.24,2.32,5.84,5.21,7.81,8.66,1.97,3.45,2.96,7.71,2.96,12.77,0,7.18-1.45,13.2-4.33,18.05-2.89,4.86-6.65,8.76-11.3,11.72-4.64,2.96-9.96,5.04-15.94,6.23-5.98,1.2-12.07,1.8-18.26,1.8s-12.53-.63-18.58-1.9c-6.05-1.27-11.44-3.38-16.15-6.34-4.72-2.96-8.59-6.86-11.61-11.72-3.03-4.86-4.68-10.94-4.96-18.26h28.51c0,3.24.67,6.02,2.01,8.34Z"/>
      <path class="cls-3" d="M178.63,331.11v20.06h-21.96v54.05c0,5.07.84,8.45,2.53,10.14,1.69,1.69,5.07,2.53,10.14,2.53,1.69,0,3.3-.07,4.86-.21,1.55-.14,3.03-.35,4.43-.63v23.23c-2.53.42-5.35.7-8.45.85-3.1.14-6.12.21-9.08.21-4.64,0-9.05-.32-13.2-.95-4.15-.63-7.81-1.86-10.98-3.7-3.17-1.83-5.67-4.44-7.5-7.81-1.83-3.38-2.75-7.81-2.75-13.3v-64.4h-18.16v-20.06h18.16v-32.73h29.98v32.73h21.96Z"/>
      <path class="cls-3" d="M266.88,440.27v-15.2h-.63c-3.8,6.33-8.73,10.91-14.78,13.72-6.05,2.81-12.25,4.22-18.58,4.22-8.02,0-14.61-1.06-19.74-3.17-5.14-2.11-9.19-5.1-12.14-8.97-2.96-3.87-5.03-8.58-6.23-14.15-1.2-5.56-1.8-11.72-1.8-18.48v-67.14h29.98v61.65c0,9.01,1.41,15.73,4.22,20.17,2.81,4.43,7.81,6.65,14.99,6.65,8.16,0,14.07-2.43,17.74-7.29,3.66-4.86,5.49-12.84,5.49-23.97v-57.22h29.98v109.16h-28.5Z"/>
      <path class="cls-3" d="M395.68,426.34c-3.52,5.91-8.13,10.17-13.83,12.78-5.7,2.6-12.14,3.91-19.32,3.91-8.17,0-15.34-1.58-21.54-4.75-6.19-3.17-11.3-7.46-15.31-12.88-4.01-5.42-7.04-11.65-9.08-18.69-2.04-7.04-3.06-14.36-3.06-21.96s1.02-14.39,3.06-21.22c2.04-6.83,5.07-12.84,9.08-18.05,4.01-5.21,9.04-9.4,15.1-12.56,6.05-3.17,13.09-4.75,21.12-4.75,6.47,0,12.63,1.37,18.48,4.12,5.84,2.75,10.45,6.79,13.83,12.14h.42v-54.9h29.98v150.76h-28.51v-13.94h-.42ZM394.41,372.39c-.84-4.15-2.29-7.81-4.33-10.98-2.04-3.17-4.68-5.73-7.92-7.71-3.24-1.97-7.32-2.96-12.25-2.96s-9.08.99-12.46,2.96c-3.38,1.97-6.09,4.58-8.13,7.81-2.04,3.24-3.52,6.94-4.43,11.09-.92,4.15-1.37,8.48-1.37,12.98,0,4.22.49,8.45,1.48,12.67.98,4.22,2.57,7.99,4.75,11.3,2.18,3.31,4.93,5.99,8.24,8.02,3.3,2.04,7.28,3.06,11.93,3.06,4.93,0,9.04-.98,12.35-2.96,3.31-1.97,5.94-4.61,7.92-7.92,1.97-3.31,3.38-7.07,4.22-11.3.85-4.22,1.27-8.58,1.27-13.09s-.42-8.83-1.27-12.98Z"/>
      <path class="cls-3" d="M448.04,314.22v-24.7h29.98v24.7h-29.98ZM478.03,331.11v109.16h-29.98v-109.16h29.98Z"/>
      <path class="cls-3" d="M502.31,362.05c2.67-7.11,6.47-13.16,11.4-18.16,4.93-4.99,10.84-8.87,17.74-11.61,6.9-2.74,14.64-4.12,23.23-4.12s16.36,1.37,23.33,4.12c6.97,2.75,12.91,6.62,17.84,11.61,4.93,5,8.73,11.05,11.4,18.16,2.67,7.11,4.01,15.03,4.01,23.75s-1.34,16.61-4.01,23.65c-2.68,7.04-6.48,13.06-11.4,18.05-4.93,5-10.87,8.84-17.84,11.51-6.97,2.67-14.75,4.01-23.33,4.01s-16.33-1.34-23.23-4.01c-6.9-2.67-12.81-6.51-17.74-11.51-4.93-4.99-8.73-11.01-11.4-18.05-2.68-7.04-4.01-14.92-4.01-23.65s1.34-16.64,4.01-23.75ZM529.55,398.57c.85,4.15,2.29,7.89,4.33,11.19,2.04,3.31,4.75,5.95,8.13,7.92,3.38,1.97,7.6,2.96,12.67,2.96s9.32-.98,12.77-2.96c3.45-1.97,6.19-4.61,8.24-7.92,2.04-3.31,3.48-7.04,4.33-11.19.84-4.15,1.27-8.41,1.27-12.77s-.42-8.66-1.27-12.88c-.85-4.22-2.29-7.95-4.33-11.19-2.04-3.24-4.79-5.88-8.24-7.92-3.45-2.04-7.71-3.06-12.77-3.06s-9.29,1.02-12.67,3.06c-3.38,2.04-6.09,4.68-8.13,7.92-2.04,3.24-3.48,6.97-4.33,11.19-.85,4.22-1.27,8.52-1.27,12.88s.42,8.62,1.27,12.77Z"/>
      <path class="cls-3" d="M655.91,413.14c1.34,2.32,3.06,4.22,5.17,5.7,2.11,1.48,4.54,2.57,7.28,3.27,2.75.7,5.6,1.05,8.55,1.05,2.11,0,4.33-.24,6.65-.74,2.32-.49,4.43-1.27,6.33-2.32,1.9-1.06,3.48-2.46,4.75-4.22,1.27-1.76,1.9-3.98,1.9-6.65,0-4.5-2.99-7.88-8.97-10.14-5.98-2.25-14.32-4.5-25.02-6.76-4.36-.98-8.62-2.14-12.78-3.48-4.15-1.34-7.85-3.09-11.09-5.28-3.24-2.18-5.84-4.93-7.81-8.24-1.97-3.31-2.96-7.35-2.96-12.14,0-7.04,1.37-12.81,4.12-17.31,2.75-4.5,6.37-8.06,10.87-10.66,4.5-2.6,9.57-4.43,15.2-5.49,5.63-1.06,11.4-1.58,17.31-1.58s11.65.56,17.21,1.69c5.56,1.13,10.52,3.03,14.89,5.7,4.36,2.68,7.99,6.23,10.87,10.66,2.88,4.43,4.61,10.03,5.17,16.79h-28.51c-.42-5.77-2.61-9.68-6.54-11.72-3.94-2.04-8.59-3.06-13.94-3.06-1.69,0-3.52.1-5.49.32-1.97.21-3.77.67-5.38,1.37-1.62.71-2.99,1.73-4.12,3.06-1.13,1.34-1.69,3.13-1.69,5.38,0,2.68.98,4.86,2.96,6.54,1.97,1.69,4.54,3.06,7.71,4.12,3.17,1.05,6.79,2,10.87,2.85,4.08.85,8.24,1.76,12.46,2.75,4.36.99,8.62,2.18,12.77,3.59,4.15,1.41,7.85,3.27,11.09,5.6,3.24,2.32,5.84,5.21,7.81,8.66,1.97,3.45,2.96,7.71,2.96,12.77,0,7.18-1.45,13.2-4.33,18.05-2.89,4.86-6.65,8.76-11.3,11.72-4.64,2.96-9.96,5.04-15.94,6.23-5.98,1.2-12.07,1.8-18.26,1.8s-12.53-.63-18.58-1.9c-6.05-1.27-11.44-3.38-16.15-6.34-4.72-2.96-8.59-6.86-11.61-11.72-3.03-4.86-4.68-10.94-4.96-18.26h28.51c0,3.24.67,6.02,2.01,8.34Z"/>
      <path class="cls-3" d="M744.91,314.22v-24.7h29.98v24.7h-29.98ZM774.89,331.11v109.16h-29.98v-109.16h29.98Z"/>
      <path class="cls-3" d="M828.52,289.52v54.9h.42c3.66-5.63,8.62-9.75,14.88-12.35,6.26-2.6,12.78-3.91,19.53-3.91,5.49,0,10.91,1.13,16.26,3.38,5.35,2.25,10.17,5.7,14.46,10.35,4.29,4.65,7.78,10.59,10.45,17.84,2.67,7.25,4.01,15.87,4.01,25.87s-1.34,18.62-4.01,25.87c-2.68,7.25-6.16,13.2-10.45,17.84-4.3,4.65-9.12,8.1-14.46,10.35-5.35,2.25-10.77,3.38-16.26,3.38-8.02,0-15.2-1.27-21.54-3.8-6.34-2.53-11.12-6.83-14.36-12.88h-.42v13.94h-28.5v-150.76h29.98ZM877.09,372.5c-.99-4.22-2.53-7.95-4.64-11.19-2.11-3.24-4.75-5.81-7.92-7.71-3.17-1.9-7-2.85-11.51-2.85s-8.17.95-11.4,2.85c-3.24,1.9-5.91,4.47-8.02,7.71-2.11,3.24-3.66,6.97-4.64,11.19-.99,4.22-1.48,8.66-1.48,13.3s.49,8.87,1.48,13.09c.98,4.22,2.53,7.95,4.64,11.19,2.11,3.24,4.78,5.81,8.02,7.71,3.24,1.9,7.04,2.85,11.4,2.85s8.34-.95,11.51-2.85c3.17-1.9,5.81-4.47,7.92-7.71,2.11-3.24,3.66-6.97,4.64-11.19.98-4.22,1.48-8.59,1.48-13.09s-.5-9.08-1.48-13.3Z"/>
      <path class="cls-3" d="M958.38,289.52v150.76h-29.98v-150.76h29.98Z"/>
      <path class="cls-3" d="M1014.12,414.09c4.5,4.36,10.98,6.55,19.43,6.55,6.05,0,11.26-1.51,15.63-4.54,4.36-3.03,7.04-6.23,8.02-9.61h26.39c-4.22,13.09-10.7,22.45-19.43,28.08-8.73,5.63-19.29,8.45-31.67,8.45-8.59,0-16.33-1.37-23.22-4.12-6.9-2.75-12.74-6.65-17.53-11.72-4.79-5.07-8.48-11.12-11.09-18.16-2.61-7.04-3.91-14.78-3.91-23.23s1.34-15.76,4.01-22.8c2.67-7.04,6.47-13.12,11.4-18.26,4.93-5.14,10.8-9.19,17.63-12.14,6.83-2.96,14.39-4.43,22.7-4.43,9.29,0,17.38,1.8,24.28,5.38,6.89,3.59,12.56,8.41,17,14.46,4.43,6.05,7.64,12.95,9.61,20.69,1.97,7.74,2.67,15.84,2.11,24.28h-78.76c.42,9.71,2.88,16.75,7.39,21.11ZM1048.01,356.66c-3.59-3.94-9.05-5.91-16.36-5.91-4.79,0-8.76.81-11.93,2.43-3.17,1.62-5.7,3.63-7.6,6.02-1.9,2.4-3.24,4.93-4.01,7.6-.78,2.68-1.23,5.07-1.37,7.18h48.77c-1.41-7.6-3.91-13.37-7.49-17.31Z"/>
      <path class="cls-3" d="M1143.55,472.79c-5.77,3.8-13.8,5.7-24.07,5.7-3.1,0-6.16-.1-9.19-.32-3.03-.21-6.09-.46-9.19-.74v-24.7c2.81.28,5.7.56,8.66.84,2.96.28,5.91.35,8.87.21,3.94-.42,6.86-1.97,8.76-4.64,1.9-2.68,2.85-5.63,2.85-8.87,0-2.39-.42-4.64-1.27-6.76l-38.22-102.41h31.88l24.7,74.75h.42l23.86-74.75h31.04l-45.61,122.68c-3.24,8.87-7.74,15.2-13.51,19Z"/>
    </g>
    <path class="cls-1" d="M600.08,285.09c-24.7-.18-61.57-8.44-76.3-29.84-7.91-11.8-6.14-27.63,2.28-38.71,13.15-17.28,36.27-24.76,55.62-32.66,7.14-2.94,15.48-5.96,18.74-13.11,8.62-23.64-49.68-27.74-39.41-63.62,11.05-35.24,78.24-19.93,82.21-56.4-.23-11.43-18.71-17.07-28.47-18.15-34.91-3.19-72.5,12.01-94.31,37.79-9.5,11.42-15.65,25.56-18.38,40.26-2.14,10.93-1.72,22.11-1.7,33.12-.08,6.26-.64,12.69-3.62,18.2-3.98,8.1-13.91,10.96-21.49,6.42-9.33-5.34-13.17-15.46-14.45-25.79C453.01,65.16,530.88-3.3,606.24.12c34.73.52,98.26,21.95,71.51,66.83-10.31,15.56-30.05,23.33-46.98,30.51-7.81,3.26-16.63,5.69-23.5,10.76-11.06,8.48-5,19.53,4.77,26.08,9.98,7.29,21.68,12.89,27.67,23.96,5.21,9.11,3.71,20.78-2.98,28.72-11.36,13.58-30.27,15.86-46.84,21.1-15,4.23-34.33,13.5-29.52,30.66,8.18,12.62,28.15,15.07,42.56,14.11,39.35-2.63,79.82-24.83,93.5-63.04,4.63-12.35,6.18-25.82,5.93-38.94.04-10.71-1.26-23.75,6.73-31.98,6.36-6.74,17.11-4.9,23.17,1.48,10.47,10.49,10.79,27.05,9.74,41.15-5.03,68.51-74.18,124.49-141.71,123.57h-.2Z"/>
    <g>
      <g>
        <path class="cls-3" d="M250.63,505.44c1.33,0,2.53.19,3.61.56,1.08.37,2.01.93,2.78,1.66.78.73,1.37,1.63,1.79,2.68.42,1.05.62,2.24.62,3.57s-.21,2.52-.62,3.57c-.42,1.05-1.01,1.95-1.79,2.68-.77.73-1.7,1.29-2.78,1.66s-2.29.56-3.61.56h-10.35v12.71h-2.83v-29.66h13.17ZM250,519.98c1.97,0,3.56-.5,4.78-1.5,1.22-1,1.83-2.52,1.83-4.57s-.61-3.57-1.83-4.57c-1.22-1-2.81-1.5-4.78-1.5h-9.72v12.13h9.72Z"/>
        <path class="cls-3" d="M275.8,505.44v12.88h17.62v-12.88h2.83v29.66h-2.83v-14.37h-17.62v14.37h-2.83v-29.66h2.83Z"/>
        <path class="cls-3" d="M310.87,514.41c.58-1.86,1.45-3.5,2.62-4.92,1.16-1.43,2.62-2.56,4.38-3.41,1.76-.84,3.8-1.27,6.13-1.27s4.36.42,6.11,1.27c1.75.85,3.2,1.98,4.36,3.41,1.16,1.43,2.04,3.07,2.62,4.92.58,1.86.87,3.81.87,5.86s-.29,4-.87,5.86c-.58,1.86-1.45,3.49-2.62,4.9-1.16,1.41-2.62,2.54-4.36,3.39-1.74.84-3.78,1.27-6.11,1.27s-4.37-.42-6.13-1.27c-1.76-.84-3.22-1.97-4.38-3.39-1.16-1.41-2.04-3.05-2.62-4.9-.58-1.86-.87-3.81-.87-5.86s.29-4,.87-5.86ZM313.46,525.03c.43,1.56,1.09,2.96,1.99,4.2.9,1.23,2.06,2.22,3.47,2.97,1.41.75,3.1,1.12,5.07,1.12s3.65-.37,5.05-1.12,2.55-1.74,3.45-2.97c.9-1.23,1.56-2.63,1.99-4.2.43-1.56.64-3.15.64-4.76s-.21-3.23-.64-4.78c-.43-1.55-1.09-2.94-1.99-4.18-.9-1.23-2.05-2.22-3.45-2.97-1.4-.75-3.08-1.12-5.05-1.12s-3.66.37-5.07,1.12c-1.41.75-2.57,1.74-3.47,2.97-.9,1.23-1.56,2.63-1.99,4.18-.43,1.55-.64,3.14-.64,4.78s.21,3.19.64,4.76Z"/>
        <path class="cls-3" d="M372.02,505.44v2.41h-10.35v27.25h-2.83v-27.25h-10.3v-2.41h23.47Z"/>
        <path class="cls-3" d="M383.45,514.41c.58-1.86,1.45-3.5,2.62-4.92,1.16-1.43,2.62-2.56,4.38-3.41,1.76-.84,3.8-1.27,6.13-1.27s4.36.42,6.11,1.27c1.75.85,3.2,1.98,4.36,3.41,1.16,1.43,2.04,3.07,2.62,4.92.58,1.86.87,3.81.87,5.86s-.29,4-.87,5.86c-.58,1.86-1.45,3.49-2.62,4.9-1.16,1.41-2.62,2.54-4.36,3.39-1.74.84-3.78,1.27-6.11,1.27s-4.37-.42-6.13-1.27c-1.76-.84-3.22-1.97-4.38-3.39-1.16-1.41-2.04-3.05-2.62-4.9-.58-1.86-.87-3.81-.87-5.86s.29-4,.87-5.86ZM386.04,525.03c.43,1.56,1.09,2.96,1.99,4.2.9,1.23,2.06,2.22,3.47,2.97,1.41.75,3.1,1.12,5.07,1.12s3.65-.37,5.05-1.12,2.55-1.74,3.45-2.97c.9-1.23,1.56-2.63,1.99-4.2.43-1.56.64-3.15.64-4.76s-.21-3.23-.64-4.78c-.43-1.55-1.09-2.94-1.99-4.18-.9-1.23-2.05-2.22-3.45-2.97-1.4-.75-3.08-1.12-5.05-1.12s-3.66.37-5.07,1.12c-1.41.75-2.57,1.74-3.47,2.97-.9,1.23-1.56,2.63-1.99,4.18-.43,1.55-.64,3.14-.64,4.78s.21,3.19.64,4.76Z"/>
      </g>
      <g>
        <path class="cls-3" d="M518.95,505.44l9.64,26.55h.08l9.55-26.55h2.99l-11.01,29.66h-3.28l-10.97-29.66h2.99Z"/>
        <path class="cls-3" d="M556.22,505.44v29.66h-2.83v-29.66h2.83Z"/>
        <path class="cls-3" d="M582.02,505.44c4.51.11,7.91,1.38,10.2,3.8,2.29,2.42,3.43,6.1,3.43,11.03s-1.14,8.61-3.43,11.03c-2.29,2.42-5.69,3.69-10.2,3.8h-10.26v-29.66h10.26ZM580.61,532.7c2.13,0,3.97-.23,5.51-.69s2.8-1.18,3.8-2.18c1-1,1.73-2.28,2.2-3.86.47-1.58.71-3.48.71-5.69s-.24-4.11-.71-5.69c-.47-1.58-1.2-2.87-2.2-3.86-1-1-2.26-1.72-3.8-2.18-1.54-.46-3.37-.69-5.51-.69h-6.02v24.84h6.02Z"/>
        <path class="cls-3" d="M630.05,505.44v2.41h-17.66v10.72h16.54v2.41h-16.54v11.72h17.87v2.41h-20.69v-29.66h20.48Z"/>
        <path class="cls-3" d="M642.84,514.41c.58-1.86,1.45-3.5,2.62-4.92,1.16-1.43,2.62-2.56,4.38-3.41,1.76-.84,3.8-1.27,6.13-1.27s4.36.42,6.11,1.27c1.75.85,3.2,1.98,4.36,3.41,1.16,1.43,2.04,3.07,2.62,4.92.58,1.86.87,3.81.87,5.86s-.29,4-.87,5.86c-.58,1.86-1.45,3.49-2.62,4.9-1.16,1.41-2.62,2.54-4.36,3.39-1.74.84-3.78,1.27-6.11,1.27s-4.37-.42-6.13-1.27c-1.76-.84-3.22-1.97-4.38-3.39-1.16-1.41-2.04-3.05-2.62-4.9-.58-1.86-.87-3.81-.87-5.86s.29-4,.87-5.86ZM645.44,525.03c.43,1.56,1.09,2.96,1.99,4.2.9,1.23,2.06,2.22,3.47,2.97,1.41.75,3.1,1.12,5.07,1.12s3.65-.37,5.05-1.12,2.55-1.74,3.45-2.97c.9-1.23,1.56-2.63,1.99-4.2.43-1.56.64-3.15.64-4.76s-.21-3.23-.64-4.78c-.43-1.55-1.09-2.94-1.99-4.18-.9-1.23-2.05-2.22-3.45-2.97-1.4-.75-3.08-1.12-5.05-1.12s-3.66.37-5.07,1.12c-1.41.75-2.57,1.74-3.47,2.97-.9,1.23-1.56,2.63-1.99,4.18-.43,1.55-.64,3.14-.64,4.78s.21,3.19.64,4.76Z"/>
      </g>
      <g>
        <path class="cls-3" d="M786.15,505.44c4.51.11,7.91,1.38,10.2,3.8,2.29,2.42,3.43,6.1,3.43,11.03s-1.14,8.61-3.43,11.03c-2.29,2.42-5.69,3.69-10.2,3.8h-10.26v-29.66h10.26ZM784.74,532.7c2.13,0,3.97-.23,5.51-.69s2.8-1.18,3.8-2.18c1-1,1.73-2.28,2.2-3.86.47-1.58.71-3.48.71-5.69s-.24-4.11-.71-5.69c-.47-1.58-1.2-2.87-2.2-3.86-1-1-2.26-1.72-3.8-2.18-1.54-.46-3.37-.69-5.51-.69h-6.02v24.84h6.02Z"/>
        <path class="cls-3" d="M834.18,505.44v2.41h-17.66v10.72h16.54v2.41h-16.54v11.72h17.87v2.41h-20.69v-29.66h20.48Z"/>
        <path class="cls-3" d="M849.72,529.16c.5,1.02,1.18,1.84,2.06,2.45.87.61,1.9,1.05,3.09,1.31,1.19.26,2.46.39,3.82.39.78,0,1.62-.11,2.53-.33.91-.22,1.77-.57,2.56-1.06.79-.48,1.45-1.11,1.97-1.87.53-.76.79-1.68.79-2.76,0-.83-.19-1.55-.56-2.16-.37-.61-.86-1.12-1.45-1.54-.6-.42-1.25-.76-1.97-1.02-.72-.26-1.43-.48-2.12-.64l-6.61-1.62c-.86-.22-1.7-.5-2.51-.83-.82-.33-1.53-.78-2.14-1.33-.61-.55-1.1-1.23-1.47-2.04-.37-.8-.56-1.79-.56-2.95,0-.72.14-1.56.41-2.53.28-.97.8-1.88,1.56-2.74.76-.86,1.81-1.59,3.14-2.18,1.33-.6,3.03-.89,5.11-.89,1.47,0,2.87.19,4.2.58,1.33.39,2.49.97,3.49,1.74,1,.78,1.79,1.74,2.39,2.89.6,1.15.89,2.49.89,4.01h-2.83c-.06-1.13-.31-2.13-.77-2.97-.46-.84-1.05-1.55-1.79-2.12-.73-.57-1.58-1-2.53-1.29-.96-.29-1.96-.44-3.01-.44-.97,0-1.9.1-2.8.31-.9.21-1.69.54-2.37,1-.68.46-1.23,1.06-1.64,1.81s-.62,1.68-.62,2.78c0,.69.12,1.3.35,1.81.23.51.56.95.98,1.31.42.36.89.65,1.43.87s1.11.4,1.72.54l7.23,1.79c1.05.28,2.04.62,2.97,1.02.93.4,1.74.9,2.45,1.5.71.6,1.26,1.32,1.66,2.18.4.86.6,1.9.6,3.12,0,.33-.03.78-.1,1.33-.07.55-.24,1.14-.5,1.76-.26.62-.64,1.25-1.12,1.89s-1.15,1.21-1.99,1.72c-.85.51-1.89.93-3.14,1.25-1.25.32-2.74.48-4.49.48s-3.37-.2-4.86-.6c-1.5-.4-2.77-1.02-3.82-1.85-1.05-.83-1.86-1.9-2.43-3.2-.57-1.3-.81-2.87-.73-4.69h2.83c-.03,1.52.21,2.8.71,3.82Z"/>
        <path class="cls-3" d="M886.23,505.44v29.66h-2.83v-29.66h2.83Z"/>
        <path class="cls-3" d="M925.08,535.1l-.37-5.4h-.08c-.5,1.05-1.12,1.96-1.85,2.72s-1.54,1.39-2.43,1.87c-.89.48-1.83.84-2.85,1.06-1.01.22-2.06.33-3.14.33-2.33,0-4.37-.42-6.13-1.27-1.76-.84-3.22-1.97-4.38-3.39-1.16-1.41-2.04-3.05-2.62-4.9-.58-1.86-.87-3.81-.87-5.86s.29-4,.87-5.86c.58-1.86,1.45-3.5,2.62-4.92,1.16-1.43,2.62-2.56,4.38-3.41,1.76-.84,3.8-1.27,6.13-1.27,1.55,0,3.02.21,4.4.62,1.39.41,2.62,1.04,3.7,1.87,1.08.83,1.99,1.86,2.74,3.07.75,1.22,1.26,2.65,1.54,4.28h-2.83c-.08-.86-.37-1.72-.85-2.6-.49-.87-1.14-1.67-1.95-2.39-.82-.72-1.79-1.31-2.93-1.77-1.14-.46-2.41-.69-3.82-.69-1.97,0-3.66.37-5.07,1.12-1.41.75-2.57,1.74-3.47,2.97-.9,1.23-1.56,2.63-1.99,4.18-.43,1.55-.64,3.14-.64,4.78s.21,3.19.64,4.76c.43,1.56,1.09,2.96,1.99,4.2.9,1.23,2.06,2.22,3.47,2.97,1.41.75,3.1,1.12,5.07,1.12,1.63,0,3.09-.27,4.38-.81,1.29-.54,2.37-1.3,3.26-2.26.89-.97,1.55-2.12,1.99-3.45.44-1.33.65-2.78.62-4.36h-10.1v-2.41h12.59v15.08h-2.04Z"/>
        <path class="cls-3" d="M945.02,505.44l17.28,25.09h.08v-25.09h2.83v29.66h-3.16l-17.28-25.09h-.08v25.09h-2.83v-29.66h3.16Z"/>
      </g>
      <circle class="cls-2" cx="722.91" cy="520.25" r="9"/>
      <circle class="cls-2" cx="463.25" cy="520.27" r="9"/>
    </g>
  </g>
</svg>