<?xml version="1.0" encoding="UTF-8"?>
<svg id="Layer_2" data-name="Layer 2" xmlns="http://www.w3.org/2000/svg" viewBox="0 0 677.56 587.11">
  <defs>
    <style>
      .cls-1 {
        opacity: .06;
      }
    </style>
  </defs>
  <g id="Layer_1-2" data-name="Layer 1">
    <g>
      <path class="cls-1" d="M5.2,57.79c2.6,1.56,6.01.58,7.37-2.2,1.02-1.89,1.21-4.1,1.24-6.25,0-3.78-.15-7.62.58-11.37.93-5.04,3.05-9.9,6.31-13.82,7.49-8.85,20.39-14.06,32.37-12.97,3.35.37,9.69,2.31,9.77,6.23-1.36,12.52-24.43,7.26-28.22,19.36-3.53,12.31,16.48,13.72,13.53,21.83-1.12,2.45-3.98,3.49-6.43,4.5-6.64,2.71-14.58,5.28-19.09,11.21-2.89,3.8-3.5,9.24-.78,13.29,5.06,7.35,17.71,10.18,26.19,10.24h.07c23.18.32,46.91-18.9,48.64-42.41.11-1.53.18-3.14.1-4.75-.07-1.39-.14-2.77-.14-4.16-.01-2.86.05-5.73.6-8.56.93-5.04,3.05-9.9,6.31-13.82,7.49-8.85,20.39-14.06,32.37-12.97,3.35.37,9.69,2.31,9.77,6.23-1.36,12.52-24.43,7.26-28.22,19.36-3.53,12.31,16.48,13.72,13.53,21.83-1.12,2.45-3.98,3.49-6.43,4.5-6.64,2.71-14.58,5.28-19.09,11.21-2.89,3.8-3.5,9.24-.78,13.29,5.06,7.35,17.71,10.18,26.19,10.24h.07c23.18.32,46.91-18.9,48.64-42.41.13-1.71.2-3.54.07-5.33-.07-1.07-.11-2.14-.12-3.22-.02-2.98.02-5.97.6-8.92.93-5.04,3.05-9.9,6.31-13.82,7.49-8.85,20.39-14.06,32.37-12.97,3.35.37,9.69,2.31,9.77,6.23-1.36,12.52-24.43,7.26-28.22,19.36-3.53,12.31,16.48,13.72,13.53,21.83-1.12,2.45-3.98,3.49-6.43,4.5-6.64,2.71-14.58,5.28-19.09,11.21-2.89,3.8-3.5,9.24-.78,13.29,5.06,7.35,17.71,10.18,26.19,10.24h.07c23.18.32,46.91-18.9,48.64-42.41.11-1.53.18-3.14.1-4.75-.07-1.39-.14-2.77-.14-4.16-.01-2.86.05-5.73.6-8.56.93-5.04,3.05-9.9,6.31-13.82,7.49-8.85,20.39-14.06,32.37-12.97,3.35.37,9.69,2.31,9.77,6.23-1.36,12.52-24.43,7.26-28.22,19.36-3.53,12.31,16.48,13.72,13.53,21.83-1.12,2.45-3.98,3.49-6.43,4.5-6.64,2.71-14.58,5.28-19.09,11.21-2.89,3.8-3.5,9.24-.78,13.29,5.06,7.35,17.71,10.18,26.19,10.24h.07c23.18.32,46.91-18.9,48.64-42.41.1-1.38.17-2.82.12-4.27-.01-.41-.01-.81,0-1.22,0-.2.01-.41.01-.61,0-3.78-.15-7.62.58-11.37.93-5.04,3.05-9.9,6.31-13.82,7.49-8.85,20.39-14.06,32.37-12.97,3.35.37,9.69,2.31,9.77,6.23-1.36,12.52-24.43,7.26-28.22,19.36-3.53,12.31,16.48,13.72,13.53,21.83-1.12,2.45-3.98,3.49-6.43,4.5-6.64,2.71-14.58,5.28-19.09,11.21-2.89,3.8-3.5,9.24-.78,13.29,5.06,7.35,17.71,10.18,26.19,10.24h.07c23.18.32,46.91-18.9,48.64-42.41.11-1.53.18-3.14.1-4.75-.07-1.39-.14-2.77-.14-4.16-.01-2.86.05-5.73.6-8.56.93-5.04,3.05-9.9,6.31-13.82,7.49-8.85,20.39-14.06,32.37-12.97,3.35.37,9.69,2.31,9.77,6.23-1.36,12.52-24.43,7.26-28.22,19.36-3.53,12.31,16.48,13.72,13.53,21.83-1.12,2.45-3.98,3.49-6.43,4.5-6.64,2.71-14.58,5.28-19.09,11.21-2.89,3.8-3.5,9.24-.78,13.29,5.06,7.35,17.71,10.18,26.19,10.24h.07c23.18.32,46.91-18.9,48.64-42.41.13-1.71.2-3.54.07-5.33-.07-1.07-.11-2.14-.12-3.22-.02-2.98.02-5.97.6-8.92.93-5.04,3.05-9.9,6.31-13.82,7.49-8.85,20.39-14.06,32.37-12.97,3.35.37,9.69,2.31,9.77,6.23-1.36,12.52-24.43,7.26-28.22,19.36-3.53,12.31,16.48,13.72,13.53,21.83-1.12,2.45-3.98,3.49-6.43,4.5-6.64,2.71-14.58,5.28-19.09,11.21-2.89,3.8-3.5,9.24-.78,13.29,5.06,7.35,17.71,10.18,26.19,10.24h.07c23.18.32,46.91-18.9,48.64-42.41.11-1.53.18-3.14.1-4.75-.07-1.39-.14-2.77-.14-4.16-.01-2.86.05-5.73.6-8.56.93-5.04,3.05-9.9,6.31-13.82,7.49-8.85,20.39-14.06,32.37-12.97,3.35.37,9.69,2.31,9.77,6.23-1.36,12.52-24.43,7.26-28.22,19.36-3.53,12.31,16.48,13.72,13.53,21.83-1.12,2.45-3.98,3.49-6.43,4.5-6.64,2.71-14.58,5.28-19.09,11.21-2.89,3.8-3.5,9.24-.78,13.29,5.06,7.35,17.71,10.18,26.19,10.24h.07c23.18.32,46.91-18.9,48.64-42.41.36-4.84.25-10.52-3.34-14.12-2.08-2.19-5.77-2.82-7.95-.51-2.74,2.83-2.3,7.3-2.31,10.98.09,4.5-.45,9.13-2.04,13.37-4.69,13.12-18.58,20.73-32.09,21.64-4.94.33-11.8-.51-14.61-4.84-1.65-5.89,4.99-9.07,10.13-10.52,5.68-1.8,12.18-2.58,16.08-7.24,2.3-2.73,2.81-6.73,1.02-9.86-2.06-3.8-6.07-5.72-9.5-8.22-3.35-2.25-5.43-6.04-1.64-8.95,2.36-1.74,5.39-2.57,8.07-3.69,5.81-2.46,12.58-5.13,16.12-10.47,9.18-15.4-12.62-22.76-24.54-22.94-25.35-1.15-51.52,21.39-50.03,47.31.08,1.47.12,2.94.12,4.41v.03c.09,4.5-.45,9.13-2.04,13.37-4.69,13.12-18.58,20.73-32.09,21.64-4.94.33-11.8-.51-14.61-4.84-1.65-5.89,4.99-9.07,10.13-10.52,5.68-1.8,12.18-2.58,16.08-7.24,2.3-2.73,2.81-6.73,1.02-9.86-2.06-3.8-6.07-5.72-9.5-8.22-3.35-2.25-5.43-6.04-1.64-8.95,2.36-1.74,5.39-2.57,8.06-3.69,5.81-2.46,12.58-5.13,16.12-10.47,9.18-15.4-12.62-22.76-24.54-22.94-25.4-1.15-51.62,21.48-50.03,47.46.08,1.35.12,2.7.12,4.05,0,.08,0,.16,0,.23.09,4.5-.45,9.13-2.04,13.37-4.69,13.12-18.58,20.73-32.09,21.64-4.94.33-11.8-.51-14.61-4.84-1.65-5.89,4.99-9.07,10.13-10.52,5.69-1.8,12.18-2.58,16.08-7.24,2.3-2.73,2.81-6.73,1.02-9.86-2.06-3.8-6.07-5.72-9.5-8.22-3.35-2.25-5.43-6.04-1.64-8.95,2.36-1.74,5.39-2.57,8.07-3.69,5.81-2.46,12.58-5.13,16.12-10.47C498.56,7.58,476.76.22,464.84.04c-25.35-1.15-51.52,21.39-50.04,47.31.08,1.47.12,2.94.12,4.41v.03c.09,4.5-.45,9.13-2.04,13.37-4.69,13.12-18.58,20.73-32.09,21.64-4.94.33-11.8-.51-14.61-4.84-1.65-5.89,4.99-9.07,10.13-10.52,5.68-1.8,12.18-2.58,16.08-7.24,2.3-2.73,2.81-6.73,1.02-9.86-2.06-3.8-6.07-5.72-9.5-8.22-3.35-2.25-5.43-6.04-1.64-8.95,2.36-1.74,5.39-2.57,8.06-3.69,5.81-2.46,12.58-5.13,16.12-10.47C415.65,7.58,393.85.22,381.93.04c-25.01-1.13-50.83,20.8-50.08,46.28.02.53.01,1.05,0,1.58-.04,1.32,0,2.64,0,3.88.09,4.5-.45,9.13-2.04,13.37-4.69,13.12-18.58,20.73-32.09,21.64-4.94.33-11.8-.51-14.61-4.84-1.65-5.89,4.99-9.07,10.13-10.52,5.68-1.8,12.18-2.58,16.08-7.24,2.3-2.73,2.81-6.73,1.02-9.86-2.06-3.8-6.07-5.72-9.5-8.22-3.35-2.25-5.43-6.04-1.64-8.95,2.36-1.74,5.39-2.57,8.07-3.69,5.81-2.46,12.58-5.13,16.12-10.47C332.59,7.58,310.78.22,298.86.04c-25.35-1.15-51.52,21.39-50.04,47.31.08,1.47.12,2.94.12,4.41v.03c.09,4.5-.45,9.13-2.04,13.37-4.69,13.12-18.58,20.73-32.09,21.64-4.94.33-11.8-.51-14.61-4.84-1.65-5.89,4.99-9.07,10.13-10.52,5.69-1.8,12.18-2.58,16.08-7.24,2.3-2.73,2.81-6.73,1.02-9.86-2.06-3.8-6.07-5.72-9.5-8.22-3.35-2.25-5.43-6.04-1.64-8.95,2.36-1.74,5.39-2.57,8.07-3.69,5.81-2.46,12.58-5.13,16.12-10.47C249.68,7.58,227.88.22,215.96.04c-25.4-1.15-51.62,21.48-50.03,47.46.08,1.35.12,2.7.12,4.05,0,.08,0,.16,0,.23.09,4.5-.45,9.13-2.04,13.37-4.69,13.12-18.58,20.73-32.09,21.64-4.94.33-11.8-.51-14.61-4.84-1.65-5.89,4.99-9.07,10.13-10.52,5.68-1.8,12.18-2.58,16.08-7.24,2.3-2.73,2.81-6.73,1.02-9.86-2.06-3.8-6.07-5.72-9.5-8.22-3.35-2.25-5.43-6.04-1.64-8.95,2.36-1.74,5.39-2.57,8.07-3.69,5.81-2.46,12.58-5.13,16.12-10.47C166.79,7.58,144.98.22,133.06.04c-25.35-1.15-51.52,21.39-50.04,47.31.08,1.47.12,2.94.12,4.41v.03c.09,4.5-.45,9.13-2.04,13.37-4.69,13.12-18.58,20.73-32.09,21.64-4.94.33-11.8-.51-14.61-4.84-1.65-5.89,4.99-9.07,10.13-10.52,5.69-1.8,12.18-2.58,16.08-7.24,2.3-2.73,2.81-6.73,1.02-9.86-2.06-3.8-6.07-5.72-9.5-8.22-3.35-2.25-5.43-6.04-1.64-8.95,2.36-1.74,5.39-2.57,8.07-3.69,5.81-2.46,12.58-5.13,16.12-10.47C83.88,7.58,62.07.22,50.15.04,24.29-1.13-2.44,22.37.24,48.94c.44,3.55,1.76,7.02,4.96,8.85Z"/>
      <path class="cls-1" d="M674,139.17c-2.08-2.19-5.77-2.82-7.95-.51-2.74,2.82-2.3,7.3-2.31,10.98.09,4.5-.45,9.13-2.04,13.37-4.69,13.12-18.58,20.73-32.09,21.64-4.94.33-11.8-.51-14.61-4.84-1.65-5.89,4.99-9.07,10.13-10.52,5.68-1.8,12.18-2.58,16.08-7.24,2.3-2.73,2.81-6.73,1.02-9.86-2.06-3.8-6.07-5.72-9.5-8.22-3.35-2.25-5.43-6.04-1.64-8.95,2.36-1.74,5.39-2.57,8.07-3.69,5.81-2.46,12.58-5.13,16.12-10.47,9.18-15.4-12.62-22.76-24.54-22.94-25.35-1.15-51.52,21.39-50.04,47.3.08,1.47.12,2.94.12,4.41v.03c.09,4.5-.45,9.13-2.04,13.37-4.69,13.12-18.58,20.73-32.09,21.64-4.94.33-11.8-.51-14.61-4.84-1.65-5.89,4.99-9.07,10.13-10.52,5.69-1.8,12.18-2.58,16.08-7.24,2.3-2.73,2.81-6.73,1.02-9.86-2.06-3.8-6.07-5.72-9.5-8.22-3.35-2.25-5.43-6.04-1.64-8.95,2.36-1.74,5.39-2.57,8.07-3.69,5.81-2.46,12.58-5.13,16.12-10.47,9.18-15.4-12.62-22.76-24.54-22.94-25.4-1.15-51.62,21.48-50.03,47.46.08,1.35.12,2.7.12,4.05v.23c.09,4.5-.45,9.13-2.04,13.37-4.69,13.12-18.58,20.73-32.09,21.64-4.94.33-11.8-.51-14.61-4.84-1.65-5.89,4.99-9.07,10.13-10.52,5.68-1.8,12.18-2.58,16.08-7.24,2.3-2.73,2.81-6.73,1.02-9.86-2.06-3.8-6.07-5.72-9.5-8.22-3.35-2.25-5.43-6.04-1.64-8.95,2.36-1.74,5.39-2.57,8.07-3.69,5.81-2.46,12.58-5.13,16.12-10.47,9.18-15.4-12.62-22.76-24.54-22.94-25.35-1.15-51.52,21.39-50.04,47.3.08,1.47.12,2.94.12,4.41v.03c.09,4.5-.45,9.13-2.04,13.37-4.69,13.12-18.58,20.73-32.09,21.64-4.94.33-11.8-.51-14.61-4.84-1.65-5.89,4.99-9.07,10.13-10.52,5.69-1.8,12.18-2.58,16.08-7.24,2.3-2.73,2.81-6.73,1.02-9.86-2.06-3.8-6.07-5.72-9.5-8.22-3.35-2.25-5.43-6.04-1.64-8.95,2.36-1.74,5.39-2.57,8.07-3.69,5.81-2.46,12.58-5.13,16.12-10.47,9.18-15.4-12.62-22.76-24.54-22.94-25.01-1.13-50.83,20.8-50.08,46.28.02.53.01,1.05,0,1.58-.04,1.32,0,2.64,0,3.88.09,4.5-.45,9.13-2.04,13.37-4.69,13.12-18.58,20.73-32.09,21.64-4.94.33-11.8-.51-14.61-4.84-1.65-5.89,4.99-9.07,10.13-10.52,5.69-1.8,12.18-2.58,16.08-7.24,2.3-2.73,2.81-6.73,1.02-9.86-2.06-3.8-6.07-5.72-9.5-8.22-3.35-2.25-5.43-6.04-1.64-8.95,2.36-1.74,5.39-2.57,8.07-3.69,5.81-2.46,12.58-5.13,16.12-10.47,9.18-15.4-12.62-22.76-24.54-22.94-25.35-1.15-51.52,21.39-50.03,47.3.08,1.47.12,2.94.12,4.41v.03c.09,4.5-.45,9.13-2.04,13.37-4.69,13.12-18.58,20.73-32.09,21.64-4.94.33-11.8-.51-14.61-4.84-1.65-5.89,4.99-9.07,10.13-10.52,5.68-1.8,12.18-2.58,16.08-7.24,2.3-2.73,2.81-6.73,1.02-9.86-2.06-3.8-6.07-5.72-9.5-8.22-3.35-2.25-5.43-6.04-1.64-8.95,2.36-1.74,5.39-2.57,8.06-3.69,5.81-2.46,12.58-5.13,16.12-10.47,9.18-15.4-12.62-22.76-24.54-22.94-25.4-1.15-51.62,21.48-50.03,47.46.08,1.35.12,2.7.12,4.05,0,.08,0,.16,0,.23.09,4.5-.45,9.13-2.04,13.37-4.69,13.12-18.58,20.73-32.09,21.64-4.94.33-11.8-.51-14.61-4.84-1.65-5.89,4.99-9.07,10.13-10.52,5.69-1.8,12.18-2.58,16.08-7.24,2.3-2.73,2.81-6.73,1.02-9.86-2.06-3.8-6.07-5.72-9.5-8.22-3.35-2.25-5.43-6.04-1.64-8.95,2.36-1.74,5.39-2.57,8.07-3.69,5.81-2.46,12.58-5.13,16.12-10.47,9.18-15.4-12.62-22.76-24.54-22.94-25.35-1.15-51.52,21.39-50.03,47.3.08,1.47.12,2.94.12,4.41v.03c.09,4.5-.45,9.13-2.04,13.37-4.69,13.12-18.58,20.73-32.09,21.64-4.94.33-11.8-.51-14.61-4.84-1.65-5.89,4.99-9.07,10.13-10.52,5.68-1.8,12.18-2.58,16.08-7.24,2.3-2.73,2.81-6.73,1.02-9.86-2.06-3.8-6.07-5.72-9.5-8.22-3.35-2.25-5.43-6.04-1.64-8.95,2.36-1.74,5.39-2.57,8.07-3.69,5.81-2.46,12.58-5.13,16.12-10.47,9.18-15.4-12.62-22.76-24.54-22.94C24.4,96.72-2.33,120.22.35,146.79c.44,3.55,1.76,7.02,4.96,8.85,2.6,1.56,6.01.58,7.37-2.21,1.02-1.89,1.21-4.1,1.24-6.25,0-3.78-.15-7.62.58-11.37.93-5.04,3.05-9.9,6.31-13.82,7.49-8.85,20.39-14.06,32.37-12.97,3.35.37,9.69,2.31,9.77,6.23-1.36,12.52-24.43,7.26-28.22,19.36-3.53,12.31,16.48,13.72,13.53,21.83-1.12,2.45-3.98,3.49-6.43,4.5-6.64,2.71-14.58,5.28-19.09,11.21-2.89,3.8-3.5,9.24-.78,13.29,5.06,7.35,17.71,10.18,26.19,10.24h.07c23.18.32,46.91-18.9,48.64-42.41.11-1.53.18-3.14.1-4.75-.07-1.39-.14-2.77-.14-4.16-.01-2.86.05-5.73.6-8.56.93-5.04,3.05-9.9,6.31-13.82,7.49-8.85,20.39-14.06,32.37-12.97,3.35.37,9.69,2.31,9.77,6.23-1.36,12.52-24.43,7.26-28.22,19.36-3.53,12.31,16.48,13.72,13.53,21.83-1.12,2.45-3.98,3.49-6.43,4.5-6.64,2.71-14.58,5.28-19.09,11.21-2.89,3.8-3.5,9.24-.78,13.29,5.06,7.35,17.71,10.18,26.19,10.24h.07c23.18.32,46.91-18.9,48.64-42.41.13-1.71.2-3.54.07-5.33-.07-1.07-.11-2.14-.12-3.22-.02-2.98.02-5.97.6-8.92.93-5.04,3.05-9.9,6.31-13.82,7.49-8.85,20.39-14.06,32.37-12.97,3.35.37,9.69,2.31,9.77,6.23-1.36,12.52-24.43,7.26-28.22,19.36-3.53,12.31,16.48,13.72,13.53,21.83-1.12,2.45-3.98,3.49-6.43,4.5-6.64,2.71-14.58,5.28-19.09,11.21-2.89,3.8-3.5,9.24-.78,13.29,5.06,7.35,17.71,10.18,26.19,10.24h.07c23.18.32,46.91-18.9,48.64-42.41.11-1.53.18-3.14.1-4.75-.07-1.39-.14-2.77-.14-4.16-.01-2.86.05-5.73.6-8.56.93-5.04,3.05-9.9,6.31-13.82,7.49-8.85,20.39-14.06,32.37-12.97,3.35.37,9.69,2.31,9.77,6.23-1.36,12.52-24.43,7.26-28.22,19.36-3.53,12.31,16.48,13.72,13.53,21.83-1.12,2.45-3.98,3.49-6.43,4.5-6.64,2.71-14.58,5.28-19.09,11.21-2.89,3.8-3.5,9.24-.78,13.29,5.06,7.35,17.71,10.18,26.19,10.24h.07c23.18.32,46.91-18.9,48.64-42.41.1-1.38.17-2.82.12-4.27-.01-.41-.01-.81,0-1.22,0-.2.01-.41.02-.61,0-3.78-.15-7.62.58-11.37.93-5.04,3.05-9.9,6.31-13.82,7.49-8.85,20.39-14.06,32.37-12.97,3.35.37,9.69,2.31,9.77,6.23-1.36,12.52-24.43,7.26-28.22,19.36-3.53,12.31,16.48,13.72,13.53,21.83-1.12,2.45-3.98,3.49-6.43,4.5-6.64,2.71-14.58,5.28-19.09,11.21-2.89,3.8-3.5,9.24-.78,13.29,5.06,7.35,17.71,10.18,26.19,10.24h.07c23.18.32,46.91-18.9,48.64-42.41.11-1.53.18-3.14.1-4.75-.07-1.39-.14-2.77-.14-4.16-.01-2.86.05-5.73.6-8.56.93-5.04,3.05-9.9,6.31-13.82,7.49-8.85,20.39-14.06,32.37-12.97,3.35.37,9.69,2.31,9.77,6.23-1.36,12.52-24.43,7.26-28.22,19.36-3.53,12.31,16.48,13.72,13.53,21.83-1.12,2.45-3.98,3.49-6.43,4.5-6.64,2.71-14.58,5.28-19.09,11.21-2.89,3.8-3.5,9.24-.78,13.29,5.06,7.35,17.71,10.18,26.19,10.24h.07c23.18.32,46.91-18.9,48.64-42.41.13-1.71.2-3.54.07-5.33-.07-1.07-.11-2.14-.12-3.22-.02-2.98.02-5.97.6-8.92.93-5.04,3.05-9.9,6.31-13.82,7.49-8.85,20.39-14.06,32.37-12.97,3.35.37,9.69,2.31,9.77,6.23-1.36,12.52-24.43,7.26-28.22,19.36-3.53,12.31,16.48,13.72,13.53,21.83-1.12,2.45-3.98,3.49-6.43,4.5-6.64,2.71-14.58,5.28-19.09,11.21-2.89,3.8-3.5,9.24-.78,13.29,5.06,7.35,17.71,10.18,26.19,10.24h.07c23.18.32,46.91-18.9,48.64-42.41.11-1.53.18-3.14.1-4.75-.07-1.39-.14-2.77-.14-4.16-.01-2.86.05-5.73.6-8.56.93-5.04,3.05-9.9,6.31-13.82,7.49-8.85,20.39-14.06,32.37-12.97,3.35.37,9.69,2.31,9.77,6.23-1.36,12.52-24.43,7.26-28.22,19.36-3.53,12.31,16.48,13.72,13.53,21.83-1.12,2.45-3.98,3.49-6.43,4.5-6.64,2.71-14.58,5.28-19.09,11.21-2.89,3.8-3.5,9.24-.78,13.29,5.06,7.35,17.71,10.18,26.19,10.24h.07c23.18.32,46.91-18.9,48.64-42.41.36-4.84.25-10.52-3.34-14.12Z"/>
      <path class="cls-1" d="M5.15,253.5c2.6,1.56,6.01.58,7.37-2.21,1.02-1.89,1.21-4.1,1.24-6.25,0-3.78-.15-7.62.58-11.37.93-5.05,3.05-9.9,6.31-13.82,7.49-8.85,20.39-14.06,32.37-12.97,3.35.37,9.69,2.31,9.77,6.23-1.36,12.52-24.43,7.26-28.22,19.36-3.53,12.31,16.48,13.72,13.53,21.83-1.12,2.45-3.98,3.49-6.43,4.5-6.64,2.71-14.58,5.28-19.09,11.21-2.89,3.8-3.5,9.24-.78,13.29,5.06,7.35,17.71,10.18,26.19,10.24h.07c23.18.32,46.91-18.9,48.64-42.41.11-1.53.18-3.14.1-4.75-.07-1.39-.14-2.77-.14-4.16-.01-2.86.04-5.73.6-8.56.93-5.05,3.05-9.9,6.31-13.82,7.49-8.85,20.39-14.06,32.37-12.97,3.35.37,9.69,2.31,9.77,6.23-1.36,12.52-24.43,7.26-28.22,19.36-3.53,12.31,16.48,13.72,13.53,21.83-1.12,2.45-3.98,3.49-6.43,4.5-6.64,2.71-14.58,5.28-19.09,11.21-2.89,3.8-3.5,9.24-.78,13.29,5.06,7.35,17.71,10.18,26.19,10.24h.07c23.18.32,46.91-18.9,48.64-42.41.13-1.71.2-3.54.07-5.33-.07-1.07-.11-2.14-.12-3.22-.02-2.98.02-5.97.6-8.92.93-5.05,3.05-9.9,6.31-13.82,7.49-8.85,20.39-14.06,32.37-12.97,3.35.37,9.69,2.31,9.77,6.23-1.36,12.52-24.43,7.26-28.22,19.36-3.53,12.31,16.48,13.72,13.53,21.83-1.12,2.45-3.98,3.49-6.43,4.5-6.64,2.71-14.58,5.28-19.09,11.21-2.89,3.8-3.5,9.24-.78,13.29,5.06,7.35,17.71,10.18,26.19,10.24h.07c23.18.32,46.91-18.9,48.64-42.41.11-1.53.18-3.14.1-4.75-.07-1.39-.14-2.77-.14-4.16-.01-2.86.04-5.73.6-8.56.93-5.05,3.05-9.9,6.31-13.82,7.49-8.85,20.39-14.06,32.37-12.97,3.35.37,9.69,2.31,9.77,6.23-1.36,12.52-24.43,7.26-28.22,19.36-3.53,12.31,16.48,13.72,13.53,21.83-1.12,2.45-3.98,3.49-6.43,4.5-6.64,2.71-14.58,5.28-19.09,11.21-2.89,3.8-3.5,9.24-.78,13.29,5.06,7.35,17.71,10.18,26.19,10.24h.07c23.18.32,46.91-18.9,48.64-42.41.1-1.38.17-2.82.12-4.27-.01-.41-.01-.81,0-1.22,0-.2.01-.41.01-.61,0-3.78-.15-7.62.58-11.37.93-5.05,3.05-9.9,6.31-13.82,7.49-8.85,20.39-14.06,32.37-12.97,3.35.37,9.69,2.31,9.77,6.23-1.36,12.52-24.43,7.26-28.22,19.36-3.53,12.31,16.48,13.72,13.53,21.83-1.12,2.45-3.98,3.49-6.43,4.5-6.64,2.71-14.58,5.28-19.09,11.21-2.89,3.8-3.5,9.24-.78,13.29,5.06,7.35,17.71,10.18,26.19,10.24h.07c23.18.32,46.91-18.9,48.64-42.41.11-1.53.18-3.14.1-4.75-.07-1.39-.14-2.77-.14-4.16-.01-2.86.05-5.73.6-8.56.93-5.05,3.05-9.9,6.31-13.82,7.49-8.85,20.39-14.06,32.37-12.97,3.35.37,9.69,2.31,9.77,6.23-1.36,12.52-24.43,7.26-28.22,19.36-3.53,12.31,16.48,13.72,13.53,21.83-1.12,2.45-3.98,3.49-6.43,4.5-6.64,2.71-14.58,5.28-19.09,11.21-2.89,3.8-3.5,9.24-.78,13.29,5.06,7.35,17.71,10.18,26.19,10.24h.07c23.18.32,46.91-18.9,48.64-42.41.13-1.71.2-3.54.07-5.33-.07-1.07-.11-2.14-.12-3.22-.02-2.98.02-5.97.6-8.92.93-5.05,3.05-9.9,6.31-13.82,7.49-8.85,20.39-14.06,32.37-12.97,3.35.37,9.69,2.31,9.77,6.23-1.36,12.52-24.43,7.26-28.22,19.36-3.53,12.31,16.48,13.72,13.53,21.83-1.12,2.45-3.98,3.49-6.43,4.5-6.64,2.71-14.58,5.28-19.09,11.21-2.89,3.8-3.5,9.24-.78,13.29,5.06,7.35,17.71,10.18,26.19,10.24h.07c23.18.32,46.91-18.9,48.64-42.41.11-1.53.18-3.14.1-4.75-.07-1.39-.14-2.77-.14-4.16-.01-2.86.05-5.73.6-8.56.93-5.05,3.05-9.9,6.31-13.82,7.49-8.85,20.39-14.06,32.37-12.97,3.35.37,9.69,2.31,9.77,6.23-1.36,12.52-24.43,7.26-28.22,19.36-3.53,12.31,16.48,13.72,13.53,21.83-1.12,2.45-3.98,3.49-6.43,4.5-6.64,2.71-14.58,5.28-19.09,11.21-2.89,3.8-3.5,9.24-.78,13.29,5.06,7.35,17.71,10.18,26.19,10.24h.07c23.18.32,46.91-18.9,48.64-42.41.36-4.84.25-10.52-3.34-14.12-2.08-2.19-5.77-2.82-7.95-.51-2.74,2.82-2.3,7.3-2.31,10.97.09,4.5-.45,9.13-2.04,13.37-4.69,13.12-18.58,20.74-32.09,21.64-4.94.33-11.8-.51-14.61-4.84-1.65-5.89,4.99-9.07,10.13-10.52,5.69-1.8,12.18-2.58,16.08-7.24,2.3-2.73,2.81-6.73,1.02-9.86-2.06-3.8-6.07-5.72-9.5-8.22-3.35-2.25-5.43-6.04-1.64-8.95,2.36-1.74,5.39-2.57,8.07-3.69,5.81-2.46,12.58-5.13,16.12-10.47,9.18-15.4-12.62-22.76-24.54-22.94-25.35-1.15-51.52,21.39-50.03,47.3.08,1.47.12,2.94.12,4.41v.03c.09,4.5-.45,9.13-2.04,13.37-4.69,13.12-18.58,20.74-32.09,21.64-4.94.33-11.8-.51-14.61-4.84-1.65-5.89,4.99-9.07,10.13-10.52,5.68-1.8,12.18-2.58,16.08-7.24,2.3-2.73,2.81-6.73,1.02-9.86-2.06-3.8-6.07-5.72-9.5-8.22-3.35-2.25-5.43-6.04-1.64-8.95,2.36-1.74,5.39-2.57,8.07-3.69,5.81-2.46,12.58-5.13,16.12-10.47,9.18-15.4-12.62-22.76-24.54-22.94-25.4-1.15-51.62,21.48-50.03,47.46.08,1.35.12,2.7.12,4.05,0,.08,0,.16,0,.23.09,4.5-.45,9.13-2.04,13.37-4.69,13.12-18.58,20.74-32.09,21.64-4.94.33-11.8-.51-14.61-4.84-1.65-5.89,4.99-9.07,10.13-10.52,5.68-1.8,12.18-2.58,16.07-7.24,2.3-2.73,2.81-6.73,1.02-9.86-2.06-3.8-6.07-5.72-9.5-8.22-3.35-2.25-5.43-6.04-1.64-8.95,2.36-1.74,5.39-2.57,8.07-3.69,5.81-2.46,12.58-5.13,16.12-10.47,9.18-15.4-12.62-22.76-24.54-22.94-25.35-1.15-51.52,21.39-50.03,47.3.08,1.47.12,2.94.12,4.41v.03c.09,4.5-.45,9.13-2.04,13.37-4.69,13.12-18.58,20.74-32.09,21.64-4.94.33-11.8-.51-14.61-4.84-1.65-5.89,4.99-9.07,10.13-10.52,5.68-1.8,12.18-2.58,16.08-7.24,2.3-2.73,2.81-6.73,1.02-9.86-2.06-3.8-6.07-5.72-9.5-8.22-3.35-2.25-5.43-6.04-1.64-8.95,2.36-1.74,5.39-2.57,8.06-3.69,5.81-2.46,12.58-5.13,16.12-10.47,9.18-15.4-12.62-22.76-24.54-22.94-25.01-1.14-50.83,20.8-50.08,46.28.02.53.01,1.06,0,1.58-.04,1.32,0,2.64,0,3.87.09,4.5-.45,9.13-2.04,13.37-4.69,13.12-18.58,20.74-32.09,21.64-4.94.33-11.8-.51-14.61-4.84-1.65-5.89,4.99-9.07,10.13-10.52,5.68-1.8,12.18-2.58,16.08-7.24,2.3-2.73,2.81-6.73,1.02-9.86-2.06-3.8-6.07-5.72-9.5-8.22-3.35-2.25-5.43-6.04-1.64-8.95,2.36-1.74,5.39-2.57,8.07-3.69,5.81-2.46,12.58-5.13,16.12-10.47,9.18-15.4-12.62-22.76-24.54-22.94-25.35-1.15-51.52,21.39-50.04,47.3.08,1.47.12,2.94.12,4.41v.03c.09,4.5-.45,9.13-2.04,13.37-4.69,13.12-18.58,20.74-32.09,21.64-4.94.33-11.8-.51-14.61-4.84-1.65-5.89,4.99-9.07,10.13-10.52,5.68-1.8,12.18-2.58,16.08-7.24,2.3-2.73,2.81-6.73,1.02-9.86-2.06-3.8-6.07-5.72-9.5-8.22-3.35-2.25-5.43-6.04-1.64-8.95,2.36-1.74,5.39-2.57,8.06-3.69,5.81-2.46,12.58-5.13,16.12-10.47,9.18-15.4-12.62-22.76-24.54-22.94-25.4-1.15-51.62,21.48-50.03,47.46.08,1.35.12,2.7.12,4.05,0,.08,0,.16,0,.23.09,4.5-.45,9.13-2.04,13.37-4.69,13.12-18.58,20.74-32.09,21.64-4.94.33-11.8-.51-14.61-4.84-1.65-5.89,4.99-9.07,10.13-10.52,5.68-1.8,12.18-2.58,16.08-7.24,2.3-2.73,2.81-6.73,1.02-9.86-2.06-3.8-6.07-5.72-9.5-8.22-3.35-2.25-5.43-6.04-1.64-8.95,2.36-1.74,5.39-2.57,8.07-3.69,5.81-2.46,12.58-5.13,16.12-10.47,9.18-15.4-12.62-22.76-24.54-22.94-25.35-1.15-51.52,21.39-50.04,47.3.08,1.47.12,2.94.12,4.41v.03c.09,4.5-.45,9.13-2.04,13.37-4.69,13.12-18.58,20.74-32.09,21.64-4.94.33-11.8-.51-14.61-4.84-1.65-5.89,4.99-9.07,10.13-10.52,5.68-1.8,12.18-2.58,16.08-7.24,2.3-2.73,2.81-6.73,1.02-9.86-2.06-3.8-6.07-5.72-9.5-8.22-3.35-2.25-5.43-6.04-1.64-8.95,2.36-1.74,5.39-2.57,8.06-3.69,5.81-2.46,12.58-5.13,16.12-10.47,9.18-15.4-12.62-22.76-24.54-22.94-25.87-1.17-52.59,22.32-49.91,48.9.44,3.55,1.76,7.02,4.96,8.85Z"/>
      <path class="cls-1" d="M622.29,356.66c-6.64,2.71-14.58,5.28-19.09,11.21-2.89,3.8-3.5,9.24-.78,13.29,5.06,7.35,17.71,10.18,26.19,10.24h.07c23.18.32,46.91-18.9,48.64-42.41.36-4.84.25-10.52-3.34-14.12-2.08-2.19-5.77-2.82-7.95-.51-2.74,2.82-2.3,7.3-2.31,10.98.09,4.5-.45,9.13-2.04,13.37-4.69,13.12-18.58,20.73-32.09,21.64-4.94.33-11.8-.51-14.61-4.84-1.65-5.89,4.99-9.07,10.13-10.52,5.68-1.8,12.18-2.58,16.08-7.24,2.3-2.73,2.81-6.73,1.02-9.86-2.06-3.8-6.07-5.72-9.5-8.22-3.35-2.25-5.43-6.04-1.64-8.95,2.36-1.74,5.39-2.57,8.07-3.69,5.81-2.46,12.58-5.13,16.12-10.47,9.18-15.4-12.62-22.76-24.54-22.94-25.35-1.15-51.52,21.39-50.04,47.31.08,1.47.12,2.94.12,4.41v.03c.09,4.5-.45,9.13-2.04,13.37-4.69,13.12-18.58,20.73-32.09,21.64-4.94.33-11.8-.51-14.61-4.84-1.65-5.89,4.99-9.07,10.13-10.52,5.68-1.8,12.18-2.58,16.08-7.24,2.3-2.73,2.81-6.73,1.02-9.86-2.06-3.8-6.07-5.72-9.5-8.22-3.35-2.25-5.43-6.04-1.64-8.95,2.36-1.74,5.39-2.57,8.06-3.69,5.81-2.46,12.58-5.13,16.12-10.47,9.18-15.4-12.62-22.76-24.54-22.94-25.4-1.15-51.62,21.48-50.03,47.46.08,1.35.12,2.7.12,4.05,0,.08,0,.16,0,.23.09,4.5-.45,9.13-2.04,13.37-4.69,13.12-18.58,20.73-32.09,21.64-4.95.33-11.8-.51-14.61-4.84-1.65-5.89,4.99-9.07,10.13-10.52,5.68-1.8,12.18-2.58,16.08-7.24,2.3-2.73,2.81-6.73,1.02-9.86-2.06-3.8-6.07-5.72-9.5-8.22-3.35-2.25-5.43-6.04-1.64-8.95,2.36-1.74,5.39-2.57,8.07-3.69,5.81-2.46,12.58-5.13,16.12-10.47,9.18-15.4-12.62-22.76-24.54-22.94-25.35-1.15-51.52,21.39-50.03,47.31.08,1.47.12,2.94.12,4.41v.03c.09,4.5-.45,9.13-2.04,13.37-4.69,13.12-18.58,20.73-32.09,21.64-4.94.33-11.8-.51-14.61-4.84-1.65-5.89,4.99-9.07,10.13-10.52,5.68-1.8,12.18-2.58,16.08-7.24,2.3-2.73,2.81-6.73,1.02-9.86-2.06-3.8-6.07-5.72-9.5-8.22-3.35-2.25-5.43-6.04-1.64-8.95,2.36-1.74,5.39-2.57,8.07-3.69,5.81-2.46,12.58-5.13,16.12-10.47,9.18-15.4-12.62-22.76-24.54-22.94-25.01-1.13-50.83,20.8-50.08,46.28.02.53.01,1.06,0,1.58-.04,1.32,0,2.64,0,3.87.09,4.5-.45,9.13-2.04,13.37-4.69,13.12-18.58,20.73-32.09,21.64-4.95.33-11.8-.51-14.61-4.84-1.65-5.89,4.99-9.07,10.13-10.52,5.68-1.8,12.18-2.58,16.08-7.24,2.3-2.73,2.81-6.73,1.02-9.86-2.06-3.8-6.07-5.72-9.5-8.22-3.35-2.25-5.43-6.04-1.64-8.95,2.36-1.74,5.39-2.57,8.07-3.69,5.81-2.46,12.58-5.13,16.12-10.47,9.18-15.4-12.62-22.76-24.54-22.94-25.35-1.15-51.52,21.39-50.03,47.31.08,1.47.12,2.94.12,4.41v.03c.09,4.5-.45,9.13-2.04,13.37-4.69,13.12-18.58,20.73-32.09,21.64-4.94.33-11.8-.51-14.61-4.84-1.65-5.89,4.99-9.07,10.13-10.52,5.69-1.8,12.18-2.58,16.08-7.24,2.3-2.73,2.81-6.73,1.02-9.86-2.06-3.8-6.07-5.72-9.5-8.22-3.35-2.25-5.43-6.04-1.64-8.95,2.36-1.74,5.39-2.57,8.07-3.69,5.81-2.46,12.58-5.13,16.12-10.47,9.18-15.4-12.62-22.76-24.54-22.94-25.4-1.15-51.62,21.48-50.03,47.46.08,1.35.12,2.7.12,4.05v.23c.09,4.5-.45,9.13-2.04,13.37-4.69,13.12-18.58,20.73-32.09,21.64-4.94.33-11.8-.51-14.61-4.84-1.65-5.89,4.99-9.07,10.13-10.52,5.68-1.8,12.18-2.58,16.08-7.24,2.3-2.73,2.81-6.73,1.02-9.86-2.06-3.8-6.07-5.72-9.5-8.22-3.35-2.25-5.43-6.04-1.64-8.95,2.36-1.74,5.39-2.57,8.07-3.69,5.81-2.46,12.58-5.13,16.12-10.47,9.18-15.4-12.62-22.76-24.54-22.94-25.35-1.15-51.52,21.39-50.04,47.31.08,1.47.12,2.94.12,4.41v.03c.09,4.5-.45,9.13-2.04,13.37-4.69,13.12-18.58,20.73-32.09,21.64-4.94.33-11.8-.51-14.61-4.84-1.65-5.89,4.99-9.07,10.13-10.52,5.68-1.8,12.18-2.58,16.08-7.24,2.3-2.73,2.81-6.73,1.02-9.86-2.06-3.8-6.07-5.72-9.5-8.22-3.35-2.25-5.43-6.04-1.64-8.95,2.36-1.74,5.39-2.57,8.06-3.69,5.81-2.46,12.58-5.13,16.12-10.47,9.18-15.4-12.62-22.76-24.54-22.94-25.87-1.17-52.59,22.32-49.91,48.9.44,3.55,1.76,7.02,4.96,8.85,2.6,1.56,6.01.58,7.37-2.2,1.02-1.89,1.21-4.1,1.24-6.25,0-3.78-.15-7.62.58-11.37.93-5.05,3.05-9.9,6.31-13.82,7.49-8.85,20.39-14.06,32.37-12.97,3.35.37,9.69,2.31,9.77,6.23-1.36,12.52-24.43,7.26-28.22,19.36-3.53,12.31,16.48,13.72,13.53,21.83-1.12,2.45-3.98,3.49-6.43,4.5-6.64,2.71-14.58,5.28-19.09,11.21-2.89,3.8-3.5,9.24-.78,13.29,5.06,7.35,17.71,10.18,26.19,10.24h.07c23.18.32,46.91-18.9,48.64-42.41.11-1.53.18-3.14.1-4.75-.07-1.39-.14-2.77-.14-4.16-.01-2.86.05-5.73.6-8.56.93-5.05,3.05-9.9,6.31-13.82,7.49-8.85,20.39-14.06,32.37-12.97,3.35.37,9.69,2.31,9.77,6.23-1.36,12.52-24.43,7.26-28.22,19.36-3.53,12.31,16.48,13.72,13.53,21.83-1.12,2.45-3.98,3.49-6.43,4.5-6.64,2.71-14.58,5.28-19.09,11.21-2.89,3.8-3.5,9.24-.78,13.29,5.06,7.35,17.71,10.18,26.19,10.24h.07c23.18.32,46.91-18.9,48.64-42.41.13-1.71.2-3.54.07-5.33-.07-1.07-.11-2.14-.12-3.22-.02-2.98.02-5.97.6-8.92.93-5.05,3.05-9.9,6.31-13.82,7.49-8.85,20.39-14.06,32.37-12.97,3.35.37,9.69,2.31,9.77,6.23-1.36,12.52-24.43,7.26-28.22,19.36-3.53,12.31,16.48,13.72,13.53,21.83-1.12,2.45-3.98,3.49-6.43,4.5-6.64,2.71-14.58,5.28-19.09,11.21-2.89,3.8-3.5,9.24-.78,13.29,5.06,7.35,17.71,10.18,26.19,10.24h.07c23.18.32,46.91-18.9,48.64-42.41.11-1.53.18-3.14.1-4.75-.07-1.39-.14-2.77-.14-4.16-.01-2.86.05-5.73.6-8.56.93-5.05,3.05-9.9,6.31-13.82,7.49-8.85,20.39-14.06,32.37-12.97,3.35.37,9.69,2.31,9.77,6.23-1.36,12.52-24.43,7.26-28.22,19.36-3.53,12.31,16.48,13.72,13.53,21.83-1.12,2.45-3.98,3.49-6.43,4.5-6.64,2.71-14.58,5.28-19.09,11.21-2.89,3.8-3.5,9.24-.78,13.29,5.06,7.35,17.71,10.18,26.19,10.24h.07c23.18.32,46.91-18.9,48.64-42.41.1-1.38.17-2.82.12-4.27-.01-.41-.01-.81,0-1.22,0-.2.01-.41.01-.61,0-3.78-.15-7.62.58-11.37.93-5.05,3.05-9.9,6.31-13.82,7.49-8.85,20.39-14.06,32.37-12.97,3.35.37,9.69,2.31,9.77,6.23-1.36,12.52-24.42,7.26-28.22,19.36-3.53,12.31,16.48,13.72,13.53,21.83-1.12,2.45-3.98,3.49-6.43,4.5-6.64,2.71-14.58,5.28-19.09,11.21-2.89,3.8-3.5,9.24-.78,13.29,5.06,7.35,17.71,10.18,26.19,10.24h.07c23.18.32,46.91-18.9,48.64-42.41.12-1.53.18-3.14.1-4.75-.07-1.39-.14-2.77-.14-4.16-.01-2.86.04-5.73.6-8.56.93-5.05,3.05-9.9,6.31-13.82,7.49-8.85,20.39-14.06,32.37-12.97,3.35.37,9.69,2.31,9.77,6.23-1.36,12.52-24.42,7.26-28.22,19.36-3.53,12.31,16.48,13.72,13.53,21.83-1.12,2.45-3.98,3.49-6.43,4.5-6.64,2.71-14.58,5.28-19.09,11.21-2.89,3.8-3.5,9.24-.78,13.29,5.06,7.35,17.71,10.18,26.19,10.24h.07c23.18.32,46.91-18.9,48.64-42.41.13-1.71.2-3.54.07-5.33-.07-1.07-.11-2.14-.12-3.22-.01-2.98.02-5.97.6-8.92.93-5.05,3.05-9.9,6.31-13.82,7.49-8.85,20.39-14.06,32.37-12.97,3.35.37,9.69,2.31,9.77,6.23-1.36,12.52-24.43,7.26-28.22,19.36-3.53,12.31,16.48,13.72,13.53,21.83-1.12,2.45-3.98,3.49-6.43,4.5-6.64,2.71-14.58,5.28-19.09,11.21-2.89,3.8-3.5,9.24-.78,13.29,5.06,7.35,17.71,10.18,26.19,10.24h.07c23.18.32,46.91-18.9,48.64-42.41.11-1.53.18-3.14.1-4.75-.07-1.39-.14-2.77-.14-4.16-.01-2.86.05-5.73.6-8.56.93-5.05,3.05-9.9,6.31-13.82,7.49-8.85,20.39-14.06,32.37-12.97,3.35.37,9.69,2.31,9.77,6.23-1.36,12.52-24.43,7.26-28.22,19.36-3.53,12.31,16.48,13.72,13.53,21.83-1.12,2.45-3.98,3.49-6.43,4.5Z"/>
      <path class="cls-1" d="M674.08,432.72c-2.08-2.19-5.77-2.82-7.95-.51-2.74,2.82-2.3,7.3-2.31,10.98.09,4.5-.45,9.13-2.04,13.37-4.69,13.12-18.58,20.73-32.09,21.64-4.94.33-11.8-.51-14.61-4.84-1.65-5.89,4.99-9.07,10.13-10.52,5.68-1.8,12.18-2.58,16.08-7.24,2.3-2.73,2.81-6.73,1.02-9.86-2.06-3.8-6.07-5.72-9.5-8.22-3.35-2.25-5.43-6.04-1.64-8.95,2.36-1.74,5.39-2.57,8.07-3.69,5.81-2.46,12.58-5.13,16.12-10.47,9.18-15.4-12.62-22.76-24.54-22.94-25.35-1.15-51.52,21.39-50.04,47.31.08,1.47.12,2.94.12,4.41v.03c.09,4.5-.45,9.13-2.04,13.37-4.69,13.12-18.58,20.73-32.09,21.64-4.94.33-11.8-.51-14.61-4.84-1.65-5.89,4.99-9.07,10.13-10.52,5.68-1.8,12.18-2.58,16.08-7.24,2.3-2.73,2.81-6.73,1.02-9.86-2.06-3.8-6.07-5.72-9.5-8.22-3.35-2.25-5.43-6.04-1.64-8.95,2.36-1.74,5.39-2.57,8.07-3.69,5.81-2.46,12.58-5.13,16.12-10.47,9.18-15.4-12.62-22.76-24.54-22.94-25.4-1.15-51.62,21.48-50.03,47.46.08,1.35.12,2.7.12,4.05v.23c.09,4.5-.45,9.13-2.04,13.37-4.69,13.12-18.58,20.73-32.09,21.64-4.95.33-11.8-.51-14.61-4.84-1.65-5.89,4.99-9.07,10.13-10.52,5.68-1.8,12.18-2.58,16.08-7.24,2.29-2.73,2.81-6.73,1.02-9.86-2.06-3.8-6.07-5.72-9.5-8.22-3.35-2.25-5.43-6.04-1.64-8.95,2.36-1.74,5.39-2.57,8.07-3.69,5.81-2.46,12.58-5.13,16.12-10.47,9.18-15.4-12.62-22.76-24.54-22.94-25.35-1.15-51.52,21.39-50.04,47.31.08,1.47.12,2.94.12,4.41v.03c.09,4.5-.45,9.13-2.04,13.37-4.69,13.12-18.58,20.73-32.09,21.64-4.94.33-11.8-.51-14.61-4.84-1.65-5.89,4.99-9.07,10.13-10.52,5.69-1.8,12.18-2.58,16.08-7.24,2.3-2.73,2.81-6.73,1.02-9.86-2.06-3.8-6.07-5.72-9.5-8.22-3.35-2.25-5.43-6.04-1.64-8.95,2.36-1.74,5.39-2.57,8.07-3.69,5.81-2.46,12.58-5.13,16.12-10.47,9.18-15.4-12.62-22.76-24.54-22.94-25.01-1.13-50.83,20.8-50.08,46.28.02.53.01,1.06,0,1.58-.04,1.32,0,2.64,0,3.88.09,4.5-.45,9.13-2.04,13.37-4.69,13.12-18.58,20.73-32.09,21.64-4.94.33-11.8-.51-14.61-4.84-1.65-5.89,4.99-9.07,10.13-10.52,5.69-1.8,12.18-2.58,16.08-7.24,2.3-2.73,2.81-6.73,1.02-9.86-2.06-3.8-6.07-5.72-9.5-8.22-3.35-2.25-5.43-6.04-1.64-8.95,2.36-1.74,5.39-2.57,8.07-3.69,5.81-2.46,12.58-5.13,16.12-10.47,9.18-15.4-12.62-22.76-24.54-22.94-25.35-1.15-51.52,21.39-50.04,47.31.08,1.47.12,2.94.12,4.41v.03c.09,4.5-.45,9.13-2.04,13.37-4.69,13.12-18.58,20.73-32.09,21.64-4.94.33-11.8-.51-14.61-4.84-1.65-5.89,4.99-9.07,10.13-10.52,5.69-1.8,12.18-2.58,16.08-7.24,2.3-2.73,2.81-6.73,1.02-9.86-2.06-3.8-6.07-5.72-9.5-8.22-3.35-2.25-5.43-6.04-1.64-8.95,2.36-1.74,5.39-2.57,8.06-3.69,5.81-2.46,12.58-5.13,16.12-10.47,9.18-15.4-12.62-22.76-24.54-22.94-25.4-1.15-51.62,21.48-50.03,47.46.08,1.35.12,2.7.12,4.05,0,.08,0,.16,0,.23.09,4.5-.45,9.13-2.04,13.37-4.69,13.12-18.58,20.73-32.09,21.64-4.94.33-11.8-.51-14.61-4.84-1.65-5.89,4.99-9.07,10.13-10.52,5.68-1.8,12.18-2.58,16.08-7.24,2.3-2.73,2.81-6.73,1.02-9.86-2.06-3.8-6.07-5.72-9.5-8.22-3.35-2.25-5.43-6.04-1.64-8.95,2.36-1.74,5.39-2.57,8.07-3.69,5.81-2.46,12.58-5.13,16.12-10.47,9.18-15.4-12.62-22.76-24.54-22.94-25.35-1.15-51.52,21.39-50.03,47.31.08,1.47.12,2.94.12,4.41v.03c.09,4.5-.45,9.13-2.04,13.37-4.69,13.12-18.58,20.73-32.09,21.64-4.94.33-11.8-.51-14.61-4.84-1.65-5.89,4.99-9.07,10.13-10.52,5.68-1.8,12.18-2.58,16.08-7.24,2.3-2.73,2.81-6.73,1.02-9.86-2.06-3.8-6.07-5.72-9.5-8.22-3.35-2.25-5.43-6.04-1.64-8.95,2.36-1.74,5.39-2.57,8.07-3.69,5.81-2.46,12.58-5.13,16.12-10.47,9.18-15.4-12.62-22.76-24.54-22.94-25.87-1.17-52.59,22.32-49.91,48.9.44,3.55,1.76,7.02,4.96,8.85,2.6,1.56,6.01.58,7.37-2.21,1.02-1.89,1.21-4.1,1.24-6.25,0-3.78-.15-7.62.58-11.37.93-5.05,3.05-9.9,6.31-13.82,7.49-8.85,20.39-14.06,32.37-12.97,3.35.37,9.69,2.31,9.77,6.23-1.36,12.52-24.43,7.26-28.22,19.36-3.53,12.31,16.48,13.72,13.53,21.83-1.12,2.45-3.98,3.49-6.43,4.5-6.64,2.71-14.58,5.28-19.09,11.21-2.89,3.8-3.5,9.24-.78,13.29,5.06,7.35,17.71,10.18,26.19,10.24h.07c23.18.32,46.91-18.9,48.64-42.41.11-1.53.18-3.14.1-4.75-.07-1.39-.14-2.77-.14-4.16-.01-2.86.04-5.73.6-8.56.93-5.05,3.05-9.9,6.31-13.82,7.49-8.85,20.39-14.06,32.37-12.97,3.35.37,9.69,2.31,9.77,6.23-1.36,12.52-24.43,7.26-28.22,19.36-3.53,12.31,16.48,13.72,13.53,21.83-1.12,2.45-3.98,3.49-6.43,4.5-6.64,2.71-14.58,5.28-19.09,11.21-2.89,3.8-3.5,9.24-.78,13.29,5.06,7.35,17.71,10.18,26.19,10.24h.07c23.18.32,46.91-18.9,48.64-42.41.13-1.71.2-3.54.07-5.33-.07-1.07-.11-2.14-.12-3.22-.02-2.98.02-5.97.6-8.92.93-5.05,3.05-9.9,6.31-13.82,7.49-8.85,20.39-14.06,32.37-12.97,3.35.37,9.69,2.31,9.77,6.23-1.36,12.52-24.43,7.26-28.22,19.36-3.53,12.31,16.48,13.72,13.53,21.83-1.12,2.45-3.98,3.49-6.43,4.5-6.64,2.71-14.58,5.28-19.09,11.21-2.89,3.8-3.5,9.24-.78,13.29,5.06,7.35,17.71,10.18,26.19,10.24h.07c23.18.32,46.91-18.9,48.64-42.41.11-1.53.18-3.14.1-4.75-.07-1.39-.14-2.77-.14-4.16,0-2.86.05-5.73.6-8.56.93-5.05,3.05-9.9,6.31-13.82,7.49-8.85,20.39-14.06,32.37-12.97,3.35.37,9.69,2.31,9.77,6.23-1.36,12.52-24.43,7.26-28.22,19.36-3.53,12.31,16.48,13.72,13.53,21.83-1.12,2.45-3.98,3.49-6.43,4.5-6.64,2.71-14.58,5.28-19.09,11.21-2.89,3.8-3.5,9.24-.78,13.29,5.06,7.35,17.71,10.18,26.19,10.24h.07c23.18.32,46.91-18.9,48.64-42.41.1-1.38.17-2.82.12-4.27-.01-.41-.01-.81,0-1.22,0-.2.01-.41.02-.61,0-3.78-.15-7.62.58-11.37.93-5.05,3.05-9.9,6.31-13.82,7.49-8.85,20.39-14.06,32.37-12.97,3.35.37,9.69,2.31,9.77,6.23-1.36,12.52-24.43,7.26-28.22,19.36-3.53,12.31,16.48,13.72,13.53,21.83-1.12,2.45-3.98,3.49-6.43,4.5-6.64,2.71-14.58,5.28-19.09,11.21-2.89,3.8-3.5,9.24-.78,13.29,5.06,7.35,17.71,10.18,26.19,10.24h.07c23.18.32,46.91-18.9,48.64-42.41.12-1.53.18-3.14.1-4.75-.07-1.39-.14-2.77-.14-4.16,0-2.86.05-5.73.6-8.56.93-5.05,3.05-9.9,6.31-13.82,7.49-8.85,20.39-14.06,32.37-12.97,3.35.37,9.69,2.31,9.77,6.23-1.36,12.52-24.43,7.26-28.22,19.36-3.53,12.31,16.48,13.72,13.53,21.83-1.12,2.45-3.98,3.49-6.43,4.5-6.64,2.71-14.58,5.28-19.09,11.21-2.89,3.8-3.5,9.24-.78,13.29,5.06,7.35,17.71,10.18,26.19,10.24h.07c23.18.32,46.91-18.9,48.64-42.41.13-1.71.2-3.54.07-5.33-.07-1.07-.11-2.14-.12-3.22-.02-2.98.02-5.97.6-8.92.93-5.05,3.05-9.9,6.31-13.82,7.49-8.85,20.39-14.06,32.37-12.97,3.35.37,9.69,2.31,9.77,6.23-1.36,12.52-24.43,7.26-28.22,19.36-3.53,12.31,16.48,13.72,13.53,21.83-1.12,2.45-3.98,3.49-6.43,4.5-6.64,2.71-14.58,5.28-19.09,11.21-2.89,3.8-3.5,9.24-.78,13.29,5.06,7.35,17.71,10.18,26.19,10.24h.07c23.18.32,46.91-18.9,48.64-42.41.11-1.53.18-3.14.1-4.75-.07-1.39-.14-2.77-.14-4.16-.01-2.86.04-5.73.6-8.56.93-5.05,3.05-9.9,6.31-13.82,7.49-8.85,20.39-14.06,32.37-12.97,3.35.37,9.69,2.31,9.77,6.23-1.36,12.52-24.42,7.26-28.22,19.36-3.53,12.31,16.48,13.72,13.53,21.83-1.12,2.45-3.98,3.49-6.43,4.5-6.64,2.71-14.58,5.28-19.09,11.21-2.89,3.8-3.5,9.24-.78,13.29,5.06,7.35,17.71,10.18,26.19,10.24h.07c23.18.32,46.91-18.9,48.64-42.41.36-4.84.25-10.52-3.34-14.12Z"/>
      <path class="cls-1" d="M665.96,530.06c-2.74,2.82-2.3,7.3-2.31,10.98.09,4.5-.45,9.13-2.04,13.37-4.69,13.12-18.58,20.73-32.09,21.64-4.94.33-11.8-.51-14.61-4.84-1.65-5.89,4.99-9.07,10.13-10.52,5.69-1.8,12.18-2.58,16.08-7.24,2.3-2.73,2.81-6.73,1.02-9.86-2.06-3.8-6.07-5.72-9.5-8.22-3.35-2.25-5.43-6.04-1.64-8.95,2.36-1.74,5.39-2.57,8.07-3.69,5.81-2.46,12.58-5.13,16.12-10.47,9.18-15.4-12.62-22.76-24.54-22.94-25.35-1.15-51.52,21.39-50.04,47.31.08,1.47.12,2.94.12,4.41v.03c.09,4.5-.45,9.13-2.04,13.37-4.69,13.12-18.58,20.73-32.09,21.64-4.94.33-11.8-.51-14.61-4.84-1.65-5.89,4.99-9.07,10.13-10.52,5.68-1.8,12.18-2.58,16.08-7.24,2.3-2.73,2.81-6.73,1.02-9.86-2.06-3.8-6.07-5.72-9.5-8.22-3.35-2.25-5.43-6.04-1.64-8.95,2.36-1.74,5.39-2.57,8.07-3.69,5.81-2.46,12.58-5.13,16.12-10.47,9.18-15.4-12.62-22.76-24.54-22.94-25.4-1.15-51.62,21.48-50.03,47.46.08,1.35.12,2.7.12,4.05,0,.08,0,.16,0,.23.09,4.5-.45,9.13-2.04,13.37-4.69,13.12-18.58,20.73-32.09,21.64-4.94.33-11.8-.51-14.61-4.84-1.65-5.89,4.99-9.07,10.13-10.52,5.68-1.8,12.18-2.58,16.08-7.24,2.3-2.73,2.81-6.73,1.02-9.86-2.06-3.8-6.07-5.72-9.5-8.22-3.35-2.25-5.43-6.04-1.64-8.95,2.36-1.74,5.39-2.57,8.07-3.69,5.81-2.46,12.58-5.13,16.12-10.47,9.18-15.4-12.62-22.76-24.54-22.94-25.35-1.15-51.52,21.39-50.03,47.31.08,1.47.12,2.94.12,4.41v.03c.09,4.5-.45,9.13-2.04,13.37-4.69,13.12-18.58,20.73-32.09,21.64-4.94.33-11.8-.51-14.61-4.84-1.65-5.89,4.99-9.07,10.13-10.52,5.68-1.8,12.18-2.58,16.08-7.24,2.3-2.73,2.81-6.73,1.02-9.86-2.06-3.8-6.07-5.72-9.5-8.22-3.35-2.25-5.43-6.04-1.64-8.95,2.36-1.74,5.39-2.57,8.07-3.69,5.81-2.46,12.58-5.13,16.12-10.47,9.18-15.4-12.62-22.76-24.54-22.94-25.01-1.14-50.83,20.8-50.08,46.28.02.53.01,1.06,0,1.58-.04,1.32,0,2.64,0,3.87.09,4.5-.45,9.13-2.04,13.37-4.69,13.12-18.58,20.73-32.09,21.64-4.94.33-11.8-.51-14.61-4.84-1.65-5.89,4.99-9.07,10.13-10.52,5.68-1.8,12.18-2.58,16.08-7.24,2.3-2.73,2.81-6.73,1.02-9.86-2.06-3.8-6.07-5.72-9.5-8.22-3.35-2.25-5.43-6.04-1.64-8.95,2.36-1.74,5.39-2.57,8.07-3.69,5.81-2.46,12.58-5.13,16.12-10.47,9.18-15.4-12.62-22.76-24.54-22.94-25.35-1.15-51.52,21.39-50.03,47.31.08,1.47.12,2.94.12,4.41v.03c.09,4.5-.45,9.13-2.04,13.37-4.69,13.12-18.58,20.73-32.09,21.64-4.94.33-11.8-.51-14.61-4.84-1.65-5.89,4.99-9.07,10.13-10.52,5.68-1.8,12.18-2.58,16.08-7.24,2.3-2.73,2.81-6.73,1.02-9.86-2.06-3.8-6.07-5.72-9.5-8.22-3.35-2.25-5.43-6.04-1.64-8.95,2.36-1.74,5.39-2.57,8.07-3.69,5.81-2.46,12.58-5.13,16.12-10.47,9.18-15.4-12.62-22.76-24.54-22.94-25.4-1.15-51.62,21.48-50.03,47.46.08,1.35.12,2.7.12,4.05v.23c.09,4.5-.45,9.13-2.04,13.37-4.69,13.12-18.58,20.73-32.09,21.64-4.94.33-11.8-.51-14.61-4.84-1.65-5.89,4.99-9.07,10.13-10.52,5.69-1.8,12.18-2.58,16.08-7.24,2.3-2.73,2.81-6.73,1.02-9.86-2.06-3.8-6.07-5.72-9.5-8.22-3.35-2.25-5.43-6.04-1.64-8.95,2.36-1.74,5.39-2.57,8.07-3.69,5.81-2.46,12.58-5.13,16.12-10.47,9.18-15.4-12.62-22.76-24.54-22.94-25.35-1.15-51.52,21.39-50.04,47.31.08,1.47.12,2.94.12,4.41v.03c.09,4.5-.45,9.13-2.04,13.37-4.69,13.12-18.58,20.73-32.09,21.64-4.94.33-11.8-.51-14.61-4.84-1.65-5.89,4.99-9.07,10.13-10.52,5.68-1.8,12.18-2.58,16.08-7.24,2.3-2.73,2.81-6.73,1.02-9.86-2.06-3.8-6.07-5.72-9.5-8.22-3.35-2.25-5.43-6.04-1.64-8.95,2.36-1.74,5.39-2.57,8.06-3.69,5.81-2.46,12.58-5.13,16.12-10.47,9.18-15.4-12.62-22.76-24.54-22.94-25.87-1.17-52.59,22.32-49.91,48.9.44,3.55,1.76,7.02,4.96,8.85,2.6,1.56,6.01.58,7.37-2.2,1.02-1.89,1.21-4.1,1.24-6.25,0-3.78-.15-7.62.58-11.37.93-5.05,3.05-9.9,6.31-13.82,7.49-8.85,20.39-14.06,32.37-12.97,3.35.37,9.69,2.31,9.77,6.23-1.36,12.52-24.43,7.26-28.22,19.36-3.53,12.31,16.48,13.72,13.53,21.83-1.12,2.45-3.98,3.49-6.43,4.5-6.64,2.71-14.58,5.28-19.09,11.21-2.89,3.8-3.5,9.24-.78,13.29,5.06,7.35,17.71,10.18,26.19,10.24h.07c23.18.32,46.91-18.9,48.64-42.41.11-1.53.18-3.14.1-4.75-.07-1.39-.14-2.77-.14-4.16-.01-2.86.05-5.73.6-8.56.93-5.05,3.05-9.9,6.31-13.82,7.49-8.85,20.39-14.06,32.37-12.97,3.35.37,9.69,2.31,9.77,6.23-1.36,12.52-24.43,7.26-28.22,19.36-3.53,12.31,16.48,13.72,13.53,21.83-1.12,2.45-3.98,3.49-6.43,4.5-6.64,2.71-14.58,5.28-19.09,11.21-2.89,3.8-3.5,9.24-.78,13.29,5.06,7.35,17.71,10.18,26.19,10.24h.07c23.18.32,46.91-18.9,48.64-42.41.13-1.71.2-3.54.07-5.33-.07-1.07-.11-2.14-.12-3.22-.02-2.98.02-5.97.6-8.92.93-5.05,3.05-9.9,6.31-13.82,7.49-8.85,20.39-14.06,32.37-12.97,3.35.37,9.69,2.31,9.77,6.23-1.36,12.52-24.42,7.26-28.22,19.36-3.53,12.31,16.48,13.72,13.53,21.83-1.12,2.45-3.98,3.49-6.43,4.5-6.64,2.71-14.58,5.28-19.09,11.21-2.89,3.8-3.5,9.24-.78,13.29,5.06,7.35,17.71,10.18,26.19,10.24h.07c23.18.32,46.91-18.9,48.64-42.41.11-1.53.18-3.14.1-4.75-.07-1.39-.14-2.77-.14-4.16-.01-2.86.04-5.73.6-8.56.93-5.05,3.05-9.9,6.31-13.82,7.49-8.85,20.39-14.06,32.37-12.97,3.35.37,9.69,2.31,9.77,6.23-1.36,12.52-24.43,7.26-28.22,19.36-3.53,12.31,16.48,13.72,13.53,21.83-1.12,2.45-3.98,3.49-6.43,4.5-6.64,2.71-14.58,5.28-19.09,11.21-2.89,3.8-3.5,9.24-.78,13.29,5.06,7.35,17.71,10.18,26.19,10.24h.07c23.18.32,46.91-18.9,48.64-42.41.1-1.38.17-2.82.12-4.27-.01-.41-.01-.81,0-1.22,0-.2.01-.41.01-.61,0-3.78-.15-7.62.58-11.37.93-5.05,3.05-9.9,6.31-13.82,7.49-8.85,20.39-14.06,32.37-12.97,3.35.37,9.69,2.31,9.77,6.23-1.36,12.52-24.43,7.26-28.22,19.36-3.53,12.31,16.48,13.72,13.53,21.83-1.12,2.45-3.98,3.49-6.43,4.5-6.64,2.71-14.58,5.28-19.09,11.21-2.89,3.8-3.5,9.24-.78,13.29,5.06,7.35,17.71,10.18,26.19,10.24h.07c23.18.32,46.91-18.9,48.64-42.41.11-1.53.18-3.14.1-4.75-.07-1.39-.14-2.77-.14-4.16-.01-2.86.04-5.73.6-8.56.93-5.05,3.05-9.9,6.31-13.82,7.49-8.85,20.39-14.06,32.37-12.97,3.35.37,9.69,2.31,9.77,6.23-1.36,12.52-24.42,7.26-28.22,19.36-3.53,12.31,16.48,13.72,13.53,21.83-1.12,2.45-3.98,3.49-6.43,4.5-6.64,2.71-14.58,5.28-19.09,11.21-2.89,3.8-3.5,9.24-.78,13.29,5.06,7.35,17.71,10.18,26.19,10.24h.07c23.18.32,46.91-18.9,48.64-42.41.13-1.71.2-3.54.07-5.33-.07-1.07-.11-2.14-.12-3.22-.02-2.98.02-5.97.6-8.92.93-5.05,3.05-9.9,6.31-13.82,7.49-8.85,20.39-14.06,32.37-12.97,3.35.37,9.69,2.31,9.77,6.23-1.36,12.52-24.43,7.26-28.22,19.36-3.53,12.31,16.48,13.72,13.53,21.83-1.12,2.45-3.98,3.49-6.43,4.5-6.64,2.71-14.58,5.28-19.09,11.21-2.89,3.8-3.5,9.24-.78,13.29,5.06,7.35,17.71,10.18,26.19,10.24h.07c23.18.32,46.91-18.9,48.64-42.41.11-1.53.18-3.14.1-4.75-.07-1.39-.14-2.77-.14-4.16,0-2.86.05-5.73.6-8.56.93-5.05,3.05-9.9,6.31-13.82,7.49-8.85,20.39-14.06,32.37-12.97,3.35.37,9.69,2.31,9.77,6.23-1.36,12.52-24.43,7.26-28.22,19.36-3.53,12.31,16.48,13.72,13.53,21.83-1.12,2.45-3.98,3.49-6.43,4.5-6.64,2.71-14.58,5.28-19.09,11.21-2.89,3.8-3.5,9.24-.78,13.29,5.06,7.35,17.71,10.18,26.19,10.24h.07c23.18.32,46.91-18.9,48.64-42.41.36-4.84.25-10.52-3.34-14.12-2.08-2.19-5.77-2.82-7.95-.51Z"/>
    </g>
  </g>
</svg>